<?xml version="1.0" encoding="UTF-8" standalone="no"?>
<svg width="76px" height="88px" viewBox="0 0 76 88" version="1.1" xmlns="http://www.w3.org/2000/svg" xmlns:xlink="http://www.w3.org/1999/xlink" xmlns:sketch="http://www.bohemiancoding.com/sketch/ns">
    <!-- Generator: Sketch 3.3.3 (12081) - http://www.bohemiancoding.com/sketch -->
    <title>Group</title>
    <desc>Created with Sketch.</desc>
    <defs></defs>
    <g id="Page-1" stroke="none" stroke-width="1" fill="none" fill-rule="evenodd" sketch:type="MSPage">
        <g id="noun_148062_cc" sketch:type="MSLayerGroup" transform="translate(4.000000, 1.000000)" fill="#000000">
            <g id="Group" sketch:type="MSShapeGroup">
                <path d="M13.674,25.093 L13.674,71.45 C13.674,72.016 14.13,72.472 14.696,72.472 C15.259,72.472 15.718,72.016 15.718,71.45 L15.718,25.093 C15.718,24.528 15.259,24.07 14.696,24.07 C14.129,24.069 13.674,24.527 13.674,25.093 L13.674,25.093 Z" id="Shape"></path>
                <path d="M27.99,25.093 L27.99,71.45 C27.99,72.016 28.446,72.472 29.013,72.472 C29.576,72.472 30.036,72.016 30.036,71.45 L30.036,25.093 C30.036,24.528 29.576,24.07 29.013,24.07 C28.446,24.069 27.99,24.527 27.99,25.093 L27.99,25.093 Z" id="Shape"></path>
                <path d="M42.309,25.093 L42.309,71.45 C42.309,72.016 42.764,72.472 43.33,72.472 C43.894,72.472 44.353,72.016 44.353,71.45 L44.353,25.093 C44.353,24.528 43.894,24.07 43.33,24.07 C42.764,24.069 42.309,24.527 42.309,25.093 L42.309,25.093 Z" id="Shape"></path>
                <path d="M60.207,28.116 L55.945,28.116 C55.246,28.116 54.564,28.22 53.9,28.426 L53.9,23.515 C53.9,22.195 53.537,20.906 52.853,19.786 C52.556,19.303 51.927,19.151 51.447,19.446 C50.965,19.742 50.812,20.371 51.107,20.853 C51.595,21.652 51.855,22.572 51.855,23.515 L51.855,29.991 C51.855,30.356 52.05,30.695 52.365,30.878 C52.683,31.06 53.072,31.06 53.39,30.874 C54.204,30.402 55.062,30.163 55.945,30.163 L60.207,30.163 C63.025,30.163 65.32,32.456 65.32,35.276 L65.32,54.364 C65.32,57.184 63.025,59.477 60.207,59.477 L55.945,59.477 C55.062,59.477 54.205,59.238 53.39,58.766 C53.095,58.589 52.738,58.58 52.433,58.728 C52.126,58.876 51.912,59.166 51.865,59.501 C51.041,65.187 49.638,74.513 49.402,75.284 C48.599,77.172 46.75,78.394 44.695,78.394 L14.357,78.394 C12.946,78.319 9.583,70.564 7.162,61.804 C7.011,61.259 6.443,60.94 5.904,61.091 C5.359,61.241 5.039,61.804 5.189,62.348 C6.693,67.788 10.596,80.439 14.357,80.439 L44.695,80.439 C47.572,80.439 50.16,78.73 51.283,76.081 C51.58,75.392 52.842,66.964 53.693,61.143 C54.422,61.396 55.175,61.521 55.945,61.521 L60.207,61.521 C64.152,61.521 67.365,58.31 67.365,54.363 L67.365,35.275 C67.365,31.328 64.152,28.116 60.207,28.116 L60.207,28.116 Z" id="Shape"></path>
                <path d="M3.747,40.771 L3.747,47.121 C3.747,47.685 4.205,48.143 4.77,48.143 C5.335,48.143 5.792,47.685 5.792,47.121 L5.792,40.771 C5.792,40.206 5.335,39.748 4.77,39.748 C4.205,39.748 3.747,40.206 3.747,40.771 L3.747,40.771 Z" id="Shape"></path>
                <path d="M61.398,51.256 L61.398,38.814 C61.398,36.793 59.752,35.148 57.732,35.148 C55.711,35.148 54.068,36.793 54.068,38.814 L54.068,51.255 C54.068,53.276 55.711,54.92 57.732,54.92 C59.752,54.921 61.398,53.276 61.398,51.256 L61.398,51.256 Z M56.113,51.256 L56.113,38.814 C56.113,37.921 56.84,37.194 57.732,37.194 C58.627,37.194 59.353,37.922 59.353,38.814 L59.353,51.255 C59.353,52.148 58.626,52.874 57.732,52.874 C56.84,52.875 56.113,52.148 56.113,51.256 L56.113,51.256 Z" id="Shape"></path>
                <path d="M3.485,57.511 C3.439,57.69 3.419,57.873 3.419,58.059 C3.419,59.289 4.32,60.29 5.428,60.29 C6.538,60.29 7.439,59.289 7.439,58.059 C7.439,57.53 7.27,57.031 6.972,56.638 C7.193,56.223 7.311,55.751 7.311,55.261 C7.311,54.682 7.141,54.126 6.829,53.662 C7.141,53.199 7.311,52.643 7.311,52.064 C7.311,50.544 6.208,49.306 4.852,49.306 C3.498,49.306 2.396,50.544 2.396,52.064 C2.396,52.643 2.563,53.199 2.875,53.662 C2.563,54.126 2.396,54.682 2.396,55.261 C2.397,56.179 2.818,57.016 3.485,57.511 L3.485,57.511 Z M4.366,53.087 C4.073,52.84 3.903,52.466 3.903,52.065 C3.903,51.388 4.338,50.816 4.853,50.816 C5.369,50.816 5.804,51.388 5.804,52.065 C5.804,52.466 5.636,52.84 5.343,53.087 C5.173,53.229 5.075,53.441 5.075,53.662 C5.075,53.883 5.173,54.096 5.343,54.238 C5.636,54.485 5.804,54.858 5.804,55.26 C5.804,55.627 5.672,55.969 5.429,56.22 C5.269,56.388 5.195,56.619 5.229,56.849 C5.261,57.079 5.399,57.281 5.601,57.395 C5.801,57.51 5.933,57.772 5.933,58.058 C5.933,58.444 5.697,58.779 5.43,58.779 C5.163,58.779 4.927,58.444 4.927,58.058 C4.927,57.896 4.979,57.741 5.085,57.58 C5.217,57.38 5.247,57.129 5.163,56.904 C5.079,56.679 4.895,56.507 4.666,56.439 C4.218,56.309 3.905,55.824 3.905,55.259 C3.905,54.857 4.075,54.484 4.368,54.237 C4.536,54.094 4.636,53.883 4.636,53.661 C4.636,53.439 4.534,53.229 4.366,53.087 L4.366,53.087 Z" id="Shape"></path>
                <path d="M11.117,79.474 C10.715,79.474 10.342,79.305 10.095,79.014 C9.809,78.674 9.23,78.674 8.945,79.014 C8.469,79.577 7.49,79.606 6.961,79.102 C6.794,78.938 6.56,78.871 6.332,78.899 C6.103,78.934 5.9,79.07 5.785,79.269 C5.513,79.742 4.403,79.565 4.403,79.098 C4.403,78.77 5.014,78.363 5.601,78.754 C5.801,78.882 6.052,78.914 6.276,78.83 C6.502,78.75 6.673,78.561 6.739,78.335 C6.963,77.567 8.345,77.328 8.945,78.034 C9.213,78.35 9.688,78.39 10.007,78.123 C10.325,77.855 10.365,77.38 10.095,77.06 C8.976,75.739 6.623,75.872 5.671,77.157 C4.311,76.825 2.893,77.824 2.893,79.098 C2.893,80.208 3.895,81.112 5.124,81.112 C5.653,81.112 6.153,80.94 6.544,80.644 C7.455,81.131 8.663,81.076 9.52,80.504 C9.983,80.812 10.539,80.983 11.118,80.983 C11.533,80.983 11.873,80.648 11.873,80.228 C11.872,79.813 11.532,79.474 11.117,79.474 L11.117,79.474 Z" id="Shape"></path>
                <path d="M8.892,33.738 L8.892,21.432 C12.783,22.252 16.989,21.148 19.638,18.709 C21.695,20.603 24.639,21.709 27.735,21.709 C30.304,21.709 32.747,20.974 34.703,19.624 C36.659,20.974 39.1,21.709 41.668,21.709 C44.656,21.709 47.488,20.681 49.551,18.866 C50.026,19.038 50.51,19.127 51,19.127 C53.633,19.127 55.773,16.755 55.773,13.844 C55.773,11.081 53.849,8.808 51.41,8.578 C49.568,5.524 45.824,3.585 41.668,3.585 C39.102,3.585 36.658,4.321 34.703,5.672 C32.745,4.32 30.305,3.585 27.735,3.585 C27.655,3.585 27.577,3.587 27.488,3.591 C25.898,1.889 23.423,0.889 20.748,0.889 C17.979,0.889 15.399,1.989 13.833,3.797 C13.066,3.657 12.299,3.585 11.54,3.585 C5.528,3.585 0.635,7.651 0.635,12.65 C0.635,13.449 0.782,14.26 1.086,15.115 C0.789,15.699 0.635,16.338 0.635,16.995 L0.635,33.738 C0.635,36.024 2.486,37.884 4.763,37.884 C7.041,37.884 8.892,36.024 8.892,33.738 L8.892,33.738 Z M2.68,33.738 L2.68,16.995 C2.68,16.567 2.81,16.152 3.06,15.795 C3.256,15.507 3.296,15.142 3.164,14.819 C2.836,14.037 2.68,13.326 2.68,12.65 C2.68,8.78 6.655,5.629 11.54,5.629 C12.355,5.629 13.186,5.728 14.013,5.921 C14.421,6.025 14.844,5.853 15.085,5.514 C16.2,3.922 18.37,2.933 20.748,2.933 C23.017,2.933 25.075,3.81 26.248,5.281 C26.457,5.546 26.968,5.664 27.305,5.652 C29.797,5.446 32.27,6.298 34.062,7.743 C34.437,8.043 34.973,8.045 35.345,7.741 C37.034,6.381 39.281,5.63 41.669,5.63 C45.31,5.63 48.538,7.37 49.899,10.065 C50.069,10.408 50.538,10.606 50.934,10.606 C52.53,10.59 53.729,12.03 53.729,13.844 C53.729,16.084 51.721,17.814 49.852,16.76 C49.456,16.538 48.948,16.604 48.623,16.934 C46.91,18.669 44.377,19.664 41.668,19.664 C39.275,19.664 37.031,18.915 35.344,17.555 C34.972,17.251 34.436,17.253 34.061,17.553 C32.373,18.915 30.127,19.664 27.735,19.664 C24.815,19.664 22.079,18.509 20.413,16.573 C20.026,16.122 19.25,16.122 18.863,16.573 C16.552,19.261 12.068,20.394 8.189,19.127 C7.877,19.021 7.536,19.076 7.271,19.269 C7.005,19.462 6.847,19.77 6.847,20.097 L6.847,33.739 C6.847,34.898 5.912,35.839 4.764,35.839 C3.615,35.838 2.68,34.897 2.68,33.738 L2.68,33.738 Z" id="Shape"></path>
            </g>
        </g>
    </g>
</svg>